<svg height="443pt" viewBox="-37 1 443 443.591" width="443pt" xmlns="http://www.w3.org/2000/svg" xmlns:xlink="http://www.w3.org/1999/xlink"><linearGradient id="a"><stop offset="0" stop-color="#f9a86d"/><stop offset=".503" stop-color="#f05361"/><stop offset="1" stop-color="#b72563"/></linearGradient><linearGradient id="b" gradientTransform="matrix(1.00092 0 0 -1.00092 -36.66323 435.613894)" gradientUnits="userSpaceOnUse" x1="-12.9837" x2="459.0282" xlink:href="#a" y1="213.4174" y2="213.4174"/><linearGradient id="c" gradientTransform="matrix(1.00092 0 0 -1.00092 -36.66323 435.613894)" gradientUnits="userSpaceOnUse" x1="-12.9836" x2="459.0297" xlink:href="#a" y1="316.9223" y2="316.9223"/><linearGradient id="d" gradientTransform="matrix(1.00092 0 0 -1.00092 -36.66323 435.613894)" gradientUnits="userSpaceOnUse" x1="-12.9835" x2="459.0299" xlink:href="#a" y1="287.3495" y2="287.3495"/><linearGradient id="e" gradientTransform="matrix(1.00092 0 0 -1.00092 -36.66323 435.613894)" gradientUnits="userSpaceOnUse" x1="-12.9838" x2="459.0296" xlink:href="#a" y1="287.3495" y2="287.3495"/><path d="m370.335938 229.398438c-.035157-13.589844-9.328126-25.40625-22.527344-28.648438-3.453125-66.808594-58.574219-119.242188-125.472656-119.351562h-29.597657v-22.199219h51.796875c4.085938 0 7.398438-3.3125 7.402344-7.398438v-44.402343c0-4.085938-3.3125-7.398438-7.398438-7.398438 0 0 0 0-.003906 0h-59.199218c-4.085938 0-7.398438 3.3125-7.398438 7.398438v74h-29.601562c-66.898438.109374-122.019532 52.542968-125.472657 119.351562-15.777343 3.785156-25.5 19.644531-21.714843 35.421875 1.4375 6.003906 4.734374 11.402344 9.414062 15.425781-12.300781 10.570313-13.703125 29.109375-3.136719 41.410156 3.953125 4.597657 9.230469 7.863282 15.109375 9.339844v60.25c.050782 44.9375 36.464844 81.351563 81.402344 81.402344h162.800781c44.933594-.050781 81.347657-36.464844 81.398438-81.402344v-60.25c15.726562-3.957031 25.269531-19.914062 21.3125-35.640625-1.480469-5.878906-4.742188-11.15625-9.34375-15.109375 6.472656-5.5625 10.203125-13.664062 10.230469-22.199218zm-133.199219-185h-44.398438v-29.597657h44.398438zm-88.800781 51.800781h74c58.40625.070312 106.789062 45.332031 110.753906 103.601562h-295.507813c3.964844-58.269531 52.351563-103.53125 110.753907-103.601562zm185 259h-296v-37.238281c12.023437 16.390624 35.058593 19.933593 51.449218 7.910156 2.953125-2.164063 5.566406-4.757813 7.753906-7.691406 12.230469 16.347656 35.398438 19.683593 51.746094 7.453124 2.824219-2.117187 5.335938-4.625 7.453125-7.453124 12.230469 16.347656 35.398438 19.683593 51.746094 7.453124 2.828125-2.117187 5.335937-4.625 7.453125-7.453124 12.230469 16.347656 35.398438 19.683593 51.746094 7.453124 2.828125-2.117187 5.339844-4.625 7.453125-7.453124 12.144531 16.300781 35.203125 19.675781 51.507812 7.53125 2.9375-2.1875 5.527344-4.800782 7.695313-7.75v37.238281zm-177.597657 14.800781-36.695312 27.519531-32.105469-27.519531zm111 59.199219h-162.800781c-33.902344-.039063-62.382812-25.511719-66.191406-59.199219h26.457031l49.71875 42.613281c2.628906 2.261719 6.480469 2.390625 9.253906.304688l57.226563-42.917969h152.527344c-3.8125 33.6875-32.289063 59.160156-66.191407 59.199219zm88.800781-155.398438c-.011718 8.167969-6.632812 14.789063-14.800781 14.800781h-7.402343c-4.082032-.003906-7.398438 3.308594-7.398438 7.394532v.003906c0 12.261719-9.9375 22.199219-22.199219 22.199219s-22.199219-9.9375-22.199219-22.199219c0-4.085938-3.316406-7.398438-7.402343-7.398438-4.085938 0-7.398438 3.3125-7.398438 7.398438 0 12.261719-9.941406 22.199219-22.199219 22.199219-12.261718 0-22.203124-9.9375-22.203124-22.199219 0-4.085938-3.3125-7.398438-7.398438-7.398438s-7.398438 3.3125-7.398438 7.398438c0 12.261719-9.941406 22.199219-22.203124 22.199219-12.257813 0-22.199219-9.9375-22.199219-22.199219 0-4.085938-3.3125-7.398438-7.398438-7.398438-4.089843 0-7.402343 3.3125-7.402343 7.398438 0 12.261719-9.9375 22.199219-22.199219 22.199219s-22.199219-9.9375-22.199219-22.199219c0-4.085938-3.316406-7.398438-7.402344-7.398438-4.085937 0-7.398437 3.3125-7.398437 7.398438 0 12.261719-9.941407 22.199219-22.199219 22.199219-12.261719 0-22.203125-9.9375-22.203125-22.199219.003906-4.085938-3.308594-7.398438-7.394531-7.398438-.003906 0-.003906 0-.003906 0h-7.398438c-8.175781 0-14.800781-6.628906-14.800781-14.800781s6.625-14.800781 14.800781-14.800781h310.800781c8.167969.011719 14.789063 6.628906 14.800781 14.800781zm-325.601562-29.601562c-8.175781 0-14.800781-6.625-14.800781-14.796875 0-8.175782 6.625-14.800782 14.800781-14.800782h310.800781c8.171875 0 14.800781 6.625 14.800781 14.800782 0 8.171875-6.628906 14.796875-14.800781 14.796875zm0 0" fill="url(#b)"/><path d="m170.539062 125.800781h29.597657c4.085937 0 7.402343-3.3125 7.402343-7.398437 0-4.089844-3.316406-7.402344-7.402343-7.402344h-29.597657c-4.089843 0-7.402343 3.3125-7.402343 7.402344 0 4.085937 3.3125 7.398437 7.402343 7.398437zm0 0" fill="url(#c)"/><path d="m170.539062 140.601562h-29.601562c-4.085938 0-7.398438 3.3125-7.398438 7.398438s3.3125 7.398438 7.398438 7.398438h29.601562c4.085938 0 7.398438-3.3125 7.398438-7.398438s-3.3125-7.398438-7.398438-7.398438zm0 0" fill="url(#d)"/><path d="m229.738281 140.601562h-29.601562c-4.085938 0-7.398438 3.3125-7.398438 7.398438s3.3125 7.398438 7.398438 7.398438h29.601562c4.085938 0 7.398438-3.3125 7.398438-7.398438s-3.3125-7.398438-7.398438-7.398438zm0 0" fill="url(#e)"/></svg>