<?xml version="1.0" encoding="iso-8859-1"?>
<!-- Generator: Adobe Illustrator 19.0.0, SVG Export Plug-In . SVG Version: 6.00 Build 0)  -->
<svg version="1.1" id="Capa_1" xmlns="http://www.w3.org/2000/svg" xmlns:xlink="http://www.w3.org/1999/xlink" x="0px" y="0px"
	 viewBox="0 0 512 512" style="enable-background:new 0 0 512 512;" xml:space="preserve">
<circle style="fill:#FFCA51;" cx="256" cy="256" r="245"/>
<path style="fill:#37C47A;" d="M229.792,130.118l-55.465-24.235c0.003,0.086,0.013,0.17,0.013,0.256v54.094L229.793,136
	C233.493,134.383,233.493,131.736,229.792,130.118z"/>
<path style="fill:#2BB381;" d="M174.34,106.139v54.094l9.66-4.222V110.11l-9.673-4.227
	C174.33,105.969,174.34,106.053,174.34,106.139z"/>
<path style="fill:#FFFFFF;" d="M167.496,173.52c2.459,0,4.907,0.084,7.344,0.237v-67.619c0-4.053-3.289-7.342-7.344-7.342
	s-7.344,3.289-7.344,7.342v67.619C162.589,173.605,165.037,173.52,167.496,173.52z"/>
<path style="fill:#EEF6FF;" d="M167.496,173.52c0.94,0,1.879,0.013,2.816,0.034v-67.416c0-2.081,0.871-3.957,2.264-5.293
	c-1.319-1.266-3.107-2.049-5.08-2.049c-4.055,0-7.344,3.289-7.344,7.342v67.619C162.589,173.605,165.037,173.52,167.496,173.52z"/>
<path style="fill:#EF9614;" d="M184.415,260.311v-20.079c0-2.916,2.177-5.437,5.063-5.863c1.256-0.184,2.478-0.278,3.629-0.278
	c0.225,0,0.547-0.147,0.607-0.363c5.038-18.208,13.733-34.696,25.153-48.759c-15.488-7.647-32.925-11.948-51.372-11.948
	c-53.622,0-98.733,36.312-112.155,85.682c0.011,0,0.022-0.001,0.033-0.001c5.339,0,8.621,2.241,11.257,4.042
	c2.319,1.589,3.989,2.731,7.319,2.731c3.639,0,5.262-1.052,7.51-2.508c2.834-1.834,6.361-4.115,12.962-4.115
	c6.603,0,10.129,2.282,12.962,4.116c2.247,1.455,3.871,2.507,7.506,2.507c3.637,0,5.261-1.052,7.509-2.507
	c2.833-1.834,6.359-4.116,12.962-4.116c6.602,0,10.129,2.282,12.962,4.116c2.247,1.455,3.87,2.507,7.508,2.507
	c3.64,0,5.263-1.052,7.51-2.508c2.837-1.835,6.365-4.115,12.964-4.115C179.725,258.852,182.314,259.466,184.415,260.311z"/>
<path style="fill:#EF8318;" d="M55.374,258.701c5.339,0,8.621,2.241,11.257,4.042c2.319,1.589,3.989,2.731,7.319,2.731
	c0.144,0,0.266-0.012,0.403-0.016c10.309-49.503,52.071-87.46,103.457-91.98c-3.399-0.299-6.838-0.459-10.314-0.459
	c-53.622,0-98.733,36.312-112.155,85.682C55.352,258.702,55.363,258.701,55.374,258.701z"/>
<path style="fill:#37C47A;" d="M184.415,259.768c-2.112-0.825-4.71-1.416-8.109-1.416c-6.749,0-10.345,2.326-13.236,4.195
	c-2.257,1.463-3.75,2.428-7.238,2.428s-4.979-0.965-7.236-2.427c-2.89-1.87-6.486-4.196-13.234-4.196
	c-6.749,0-10.345,2.326-13.234,4.196c-2.257,1.462-3.749,2.427-7.237,2.427c-3.487,0-4.977-0.965-7.234-2.427
	c-2.889-1.87-6.486-4.196-13.233-4.196c-6.748,0-10.344,2.326-13.234,4.195c-2.258,1.463-3.75,2.428-7.238,2.428
	c-3.175,0-4.707-1.049-7.028-2.638c-2.695-1.841-6.048-4.136-11.548-4.136c-1.017,0-2.086,0.083-3.18,0.243
	c-2.708,0.4-4.715,2.724-4.715,5.461v19.276c0-3.447,2.795-6.242,6.244-6.242h64.993c0.917-2.307,3.166-3.94,5.799-3.94h59.9
	v-13.231H184.415z"/>
<path style="fill:#2BB381;" d="M53.723,276.94H68v-13.034c0-0.272,0.034-0.535,0.073-0.797c-0.37-0.241-0.746-0.495-1.15-0.771
	c-2.695-1.841-6.048-4.136-11.548-4.136c-1.017,0-2.086,0.083-3.18,0.243c-2.708,0.4-4.715,2.724-4.715,5.461v19.276
	C47.479,279.734,50.274,276.94,53.723,276.94z"/>
<path style="fill:#FFFFFF;" d="M119.551,291.108v-13.446c0-0.814,0.161-1.59,0.444-2.303H53.723c-3.449,0-6.244,2.795-6.244,6.242
	v13.1c0-2.737,2.008-5.06,4.715-5.459c1.095-0.161,2.165-0.243,3.18-0.243c5.501,0,8.854,2.295,11.549,4.137
	c2.32,1.588,3.853,2.636,7.028,2.636c3.488,0,4.98-0.965,7.238-2.429c2.89-1.869,6.486-4.193,13.234-4.193
	s10.344,2.324,13.233,4.197c2.257,1.46,3.747,2.425,7.234,2.425c2.593,0,4.083-0.535,5.604-1.409
	C119.908,293.414,119.551,292.308,119.551,291.108z"/>
<path style="fill:#EEF6FF;" d="M52.194,289.243c1.095-0.161,2.165-0.243,3.18-0.243c5.501,0,8.854,2.295,11.549,4.137
	c0.377,0.258,0.731,0.496,1.077,0.724v-12.259c0-3.447,2.795-6.242,6.244-6.242H53.723c-3.449,0-6.244,2.795-6.244,6.242v13.1
	C47.479,291.965,49.487,289.642,52.194,289.243z"/>
<path style="fill:#FFE2B8;" d="M184.415,290.566V271.42h-59.9c-3.448,0-6.244,2.795-6.244,6.242v13.446
	c0,1.41,0.473,2.706,1.261,3.751c0.862-0.4,1.666-0.91,2.595-1.512c2.89-1.873,6.487-4.197,13.234-4.197
	c6.749,0,10.344,2.324,13.234,4.197c2.257,1.46,3.749,2.425,7.236,2.425c3.488,0,4.981-0.965,7.238-2.429
	c2.891-1.869,6.486-4.193,13.236-4.193C179.705,289.15,182.303,289.741,184.415,290.566z"/>
<path style="fill:#FFD782;" d="M122.127,293.348c2.89-1.873,6.487-4.197,13.234-4.197c1.331,0,2.535,0.093,3.639,0.252v-11.74
	c0-3.447,2.795-6.242,6.244-6.242h-20.729c-3.448,0-6.244,2.795-6.244,6.242v13.446c0,1.41,0.473,2.706,1.261,3.751
	C120.394,294.459,121.198,293.949,122.127,293.348z"/>
<path style="fill:#EF9614;" d="M189.903,395.5c-0.425-1.466-0.665-3.01-0.665-4.611v-18.635H61.755
	c-3.648,0-7.092-0.888-10.134-2.45v23.5c0,0.749,0.074,1.478,0.182,2.196H189.903z"/>
<path style="fill:#EF8318;" d="M83.182,395.5c-0.108-0.719-0.182-1.447-0.182-2.196v-21.05H61.755c-3.648,0-7.092-0.888-10.134-2.45
	v23.5c0,0.749,0.074,1.478,0.182,2.196H83.182z"/>
<path style="fill:#FE3745;" d="M184.415,289.141c-2.112-0.825-4.71-1.416-8.109-1.416c-6.749,0-10.345,2.324-13.236,4.193
	c-2.257,1.464-3.75,2.429-7.238,2.429s-4.979-0.965-7.236-2.425c-2.89-1.873-6.485-4.197-13.234-4.197
	c-6.748,0-10.345,2.324-13.234,4.197c-2.257,1.46-3.749,2.425-7.237,2.425c-3.487,0-4.977-0.965-7.234-2.425
	c-2.889-1.873-6.485-4.197-13.233-4.197s-10.344,2.324-13.234,4.193c-2.258,1.464-3.75,2.429-7.238,2.429
	c-3.175,0-4.707-1.048-7.028-2.636c-2.695-1.842-6.047-4.137-11.549-4.137c-1.016,0-2.085,0.082-3.18,0.243
	c-2.707,0.398-4.715,2.722-4.715,5.459v23.688c0-3.296,2.67-5.964,5.964-5.964h130.972v-21.859H184.415z"/>
<path style="fill:#EA2A3D;" d="M53.443,311H68v-17.724c0-0.271,0.034-0.533,0.072-0.795c-0.369-0.241-0.745-0.494-1.149-0.771
	c-2.695-1.842-6.047-4.137-11.549-4.137c-1.016,0-2.085,0.082-3.18,0.243c-2.707,0.398-4.715,2.722-4.715,5.459v23.688
	C47.479,313.668,50.149,311,53.443,311z"/>
<g>
	<circle style="fill:#FFFFFF;" cx="167.5" cy="232.5" r="9.546"/>
	<circle style="fill:#FFFFFF;" cx="96.27" cy="229.56" r="9.546"/>
</g>
<g>
	<path style="fill:#FFDD8D;" d="M207.67,201.017c-0.412-0.054-0.829-0.092-1.256-0.092c-5.272,0-9.546,4.274-9.546,9.548
		c0,2.564,1.018,4.889,2.665,6.604C201.898,211.508,204.62,206.146,207.67,201.017z"/>
	<circle style="fill:#FFDD8D;" cx="134.45" cy="207.53" r="9.546"/>
</g>
<path style="fill:#994334;" d="M189.238,364.191c0-0.189-0.107-0.363-0.277-0.447c-8.899-4.434-14.427-13.355-14.427-23.283
	c0-2.244,0.304-4.455,0.868-6.588H53.443c-1.961,0-3.679-1.041-4.643-2.597c-5.925,4.11-9.808,10.957-9.808,18.715
	c0,12.569,10.191,22.763,22.763,22.763h127.483V364.191z"/>
<path style="fill:#7F2D22;" d="M70,349.991c0-6.298,2.557-11.997,6.689-16.118H53.443c-1.961,0-3.679-1.041-4.643-2.597
	c-5.925,4.11-9.808,10.957-9.808,18.715c0,12.569,10.191,22.763,22.763,22.763h31.008C80.191,372.754,70,362.56,70,349.991z"/>
<path style="fill:#FFD00D;" d="M79.564,333.873l34.7,20.033c3.142,1.814,8.284,1.814,11.426,0l34.7-20.033H79.564z"/>
<path style="fill:#37C47A;" d="M121.959,328.41v-12.843c0-3.296,2.67-5.964,5.964-5.964h-74.48c-3.294,0-5.964,2.668-5.964,5.964
	v12.843c0,3.295,2.67,5.963,5.964,5.963h74.48C124.629,334.373,121.959,331.705,121.959,328.41z"/>
<path style="fill:#02AF8E;" d="M68,328.41v-12.843c0-3.296,2.67-5.964,5.964-5.964H53.443c-3.294,0-5.964,2.668-5.964,5.964v12.843
	c0,3.295,2.67,5.963,5.964,5.963h20.521C70.67,334.373,68,331.705,68,328.41z"/>
<path style="fill:#0F9390;" d="M185.273,319.422c0.213-0.154,0.27-0.447,0.129-0.67c-0.646-1.03-0.988-2.211-0.988-3.416v-5.732
	h-57.976c-3.294,0-5.964,2.668-5.964,5.964v12.843c0,3.295,2.67,5.963,5.964,5.963h48.825
	C176.708,328.434,180.227,323.09,185.273,319.422z"/>
<path style="fill:#10827C;" d="M141,328.41v-12.843c0-3.296,2.67-5.964,5.964-5.964H126.44c-3.294,0-5.964,2.668-5.964,5.964v12.843
	c0,3.295,2.67,5.963,5.964,5.963h20.524C143.67,334.373,141,331.705,141,328.41z"/>
<path style="fill:#EA2A3D;" d="M78.159,424.5C122.809,471.61,185.969,501,256,501s133.191-29.39,177.841-76.5H78.159z"/>
<g>
	<path style="fill:#B7092B;" d="M107.75,424.5v26.553c6.426,4.892,13.098,9.475,20,13.723V424.5H107.75z"/>
	<path style="fill:#B7092B;" d="M147.25,424.5v51.082c6.509,3.23,13.179,6.184,20,8.836V424.5H147.25z"/>
	<path style="fill:#B7092B;" d="M186.75,424.5v66.558c6.559,1.93,13.225,3.607,20,4.989V424.5H186.75z"/>
	<path style="fill:#B7092B;" d="M226.25,424.5v74.697c6.589,0.799,13.26,1.328,20,1.593V424.5H226.25z"/>
	<path style="fill:#B7092B;" d="M265.75,424.5v76.29c6.74-0.265,13.411-0.794,20-1.593V424.5H265.75z"/>
	<path style="fill:#B7092B;" d="M305.25,424.5v71.547c6.775-1.383,13.441-3.06,20-4.989V424.5H305.25z"/>
	<path style="fill:#B7092B;" d="M344.75,424.5v59.919c6.821-2.652,13.491-5.606,20-8.837V424.5H344.75z"/>
	<path style="fill:#B7092B;" d="M384.25,424.5v40.276c6.902-4.249,13.574-8.832,20-13.724V424.5H384.25z"/>
</g>
<path style="fill:#FE3745;" d="M396.18,84.467l-64.494-28.181c0.003,0.088,0.013,0.174,0.013,0.263v62.943l64.481-28.179
	C400.488,89.432,400.488,86.351,396.18,84.467z"/>
<path style="fill:#EA2A3D;" d="M331.685,56.286c0.003,0.088,0.013,0.174,0.013,0.263v62.943L345,113.68V62.104L331.685,56.286z"/>
<path style="fill:#FFFFFF;" d="M323.649,134.918c2.863,0,5.713,0.098,8.55,0.276V56.549c0-4.721-3.829-8.549-8.55-8.549
	c-4.721,0-8.55,3.828-8.55,8.549v78.646C317.936,135.016,320.786,134.918,323.649,134.918z"/>
<path style="fill:#EEF6FF;" d="M323.649,134.918c0.751,0,1.501,0.014,2.251,0.026V56.549c0-2.672,1.228-5.057,3.149-6.625
	c-1.473-1.201-3.352-1.924-5.401-1.924c-4.721,0-8.55,3.828-8.55,8.549v78.646C317.936,135.016,320.786,134.918,323.649,134.918z"/>
<path style="fill:#EF9614;" d="M193.107,234.091c6.246,0,10.078,2.62,13.157,4.725c2.683,1.837,4.617,3.161,8.472,3.161
	c4.212,0,6.094-1.219,8.699-2.906c3.31-2.142,7.429-4.805,15.136-4.805c7.711,0,11.828,2.665,15.136,4.807
	c2.605,1.686,4.487,2.904,8.694,2.904c4.21,0,6.092-1.219,8.697-2.904c3.309-2.142,7.427-4.807,15.137-4.807
	s11.828,2.665,15.137,4.807c2.604,1.686,4.487,2.904,8.697,2.904c4.213,0,6.095-1.219,8.699-2.906
	c3.314-2.143,7.432-4.805,15.138-4.805c7.707,0,11.826,2.665,15.135,4.807c2.604,1.686,4.486,2.904,8.695,2.904
	c4.212,0,6.095-1.219,8.702-2.906c3.311-2.142,7.429-4.805,15.137-4.805c7.706,0,11.825,2.662,15.134,4.801
	c2.609,1.691,4.492,2.91,8.706,2.91s6.097-1.219,8.703-2.906c3.311-2.141,7.431-4.805,15.141-4.805
	c8.045,0,12.104,2.443,15.365,4.406c2.242,1.348,4.178,2.511,7.843,3.174c0.029,0.005,0.059,0.008,0.089,0.008
	c0.062,0,0.124-0.012,0.183-0.034c0.854-0.333,1.912-0.722,3.153-0.815c-13.19-60.93-67.364-106.586-132.241-106.586
	c-62.401,0-114.903,42.234-130.558,99.674C193.096,234.092,193.102,234.091,193.107,234.091z"/>
<path style="fill:#EF8318;" d="M193.107,234.091c6.246,0,10.078,2.62,13.157,4.725c1.874,1.283,3.395,2.304,5.449,2.811
	c12.27-58.006,61.654-102.306,122.156-106.825c-3.374-0.252-6.782-0.383-10.22-0.383c-62.401,0-114.903,42.234-130.558,99.674
	C193.096,234.092,193.102,234.091,193.107,234.091z"/>
<path style="fill:#37C47A;" d="M456.411,240.464c-1.569,0-2.843,0.495-3.774,0.857c-0.027,0.009-0.055,0.021-0.082,0.032
	c-3.574-0.646-5.404-1.746-7.674-3.11c-3.318-1.997-7.446-4.478-15.623-4.478c-7.858,0-12.047,2.709-15.413,4.885
	c-2.63,1.703-4.367,2.826-8.431,2.826c-4.063,0-5.8-1.123-8.429-2.826c-3.366-2.176-7.553-4.885-15.411-4.885
	s-12.045,2.709-15.409,4.885c-2.63,1.703-4.368,2.826-8.43,2.826c-4.06,0-5.796-1.123-8.423-2.824
	c-3.365-2.178-7.551-4.887-15.407-4.887c-7.858,0-12.044,2.709-15.41,4.885c-2.628,1.703-4.366,2.826-8.427,2.826
	s-5.797-1.123-8.425-2.824c-3.365-2.178-7.551-4.887-15.408-4.887s-12.044,2.709-15.409,4.887c-2.628,1.701-4.364,2.824-8.425,2.824
	c-4.06,0-5.795-1.123-8.423-2.824c-3.364-2.178-7.552-4.887-15.408-4.887s-12.043,2.709-15.408,4.885
	c-2.629,1.703-4.366,2.826-8.427,2.826c-3.696,0-5.481-1.22-8.183-3.069c-3.137-2.145-7.042-4.816-13.446-4.816
	c-1.183,0-2.428,0.097-3.702,0.284c-3.153,0.466-5.49,3.172-5.49,6.357v21.623c0-4.014,3.254-7.268,7.27-7.268h75.669
	c1.068-2.686,3.686-4.588,6.752-4.588h100.084c3.067,0,5.685,1.902,6.752,4.588h75.671c4.015,0,7.268,3.254,7.268,7.268V247.55
	C463.383,243.576,460.319,240.464,456.411,240.464z"/>
<path style="fill:#02AF8E;" d="M204.532,240.232c0-0.984,0.245-1.91,0.646-2.751c-2.911-1.917-6.566-3.891-12.071-3.891
	c-1.183,0-2.428,0.097-3.702,0.284c-3.153,0.466-5.49,3.172-5.49,6.357v21.623c0-4.014,3.254-7.268,7.27-7.268h13.347V240.232z"/>
<path style="fill:#FFFFFF;" d="M189.477,268.568c1.252-0.186,2.473-0.279,3.629-0.279c6.246,0,10.078,2.619,13.157,4.725
	c2.683,1.837,4.617,3.161,8.472,3.161c4.21,0,6.093-1.22,8.699-2.907c3.308-2.14,7.426-4.803,15.136-4.803
	c7.717,0,11.831,2.665,15.136,4.807c2.61,1.688,4.491,2.903,8.695,2.903c1.873,0,3.393-0.241,4.784-0.759
	c0.131-0.049,0.235-0.149,0.288-0.278s0.05-0.274-0.009-0.4c-0.416-0.898-0.627-1.852-0.627-2.832V256.25
	c0-0.952,0.2-1.858,0.556-2.681h-76.208c-4.016,0-7.27,3.254-7.27,7.268v14.805c0-1.15,0.313-2.233,0.851-3.176
	C185.486,270.447,187.269,268.893,189.477,268.568z"/>
<path style="fill:#EEF6FF;" d="M201.404,260.836c0-4.014,3.254-7.268,7.27-7.268h-17.489c-4.016,0-7.27,3.254-7.27,7.268v14.805
	c0-1.15,0.313-2.233,0.851-3.176c0.721-2.018,2.504-3.572,4.712-3.896c1.252-0.186,2.473-0.279,3.629-0.279
	c3.39,0,6.064,0.773,8.297,1.815V260.836z"/>
<path style="fill:#FFFFFF;" d="M456.114,253.568h-76.211c0.357,0.822,0.556,1.729,0.556,2.681v11.729
	c0,0.134,0.054,0.263,0.15,0.357c0.093,0.091,0.219,0.143,0.35,0.143c0.003,0,0.487-0.014,0.614-0.014
	c7.71,0,11.829,2.663,15.139,4.802c2.605,1.689,4.488,2.908,8.701,2.908c4.211,0,6.095-1.22,8.702-2.907
	c3.31-2.14,7.428-4.803,15.141-4.803c8.039,0,12.101,2.441,15.364,4.403c2.248,1.352,4.183,2.515,7.843,3.174
	c0.029,0.005,0.059,0.008,0.088,0.008c0.051,0,0.102-0.008,0.15-0.023c0.006-0.002,0.092-0.033,0.098-0.036
	c0.907-0.353,2.128-0.828,3.609-0.828c2.846,0,5.202,1.783,6.089,4.332c0.04,0.073,0.088,0.141,0.126,0.215
	c0.48-0.971,0.758-2.061,0.758-3.217v-15.656C463.383,256.822,460.129,253.568,456.114,253.568z"/>
<path style="fill:#FFE2B8;" d="M270.826,274.063c3.365-2.18,7.553-4.887,15.409-4.887c7.858,0,12.043,2.707,15.408,4.887
	c2.628,1.699,4.365,2.823,8.425,2.823c4.061,0,5.799-1.124,8.427-2.827c3.366-2.176,7.552-4.883,15.41-4.883
	c7.855,0,12.042,2.707,15.407,4.887c2.627,1.699,4.363,2.823,8.423,2.823c4.062,0,5.799-1.124,8.43-2.827
	c3.274-2.117,7.336-4.73,14.795-4.869v-12.941c0-4.014-3.253-7.268-7.269-7.268H273.607c-4.015,0-7.27,3.255-7.27,7.268v15.656
	c0,1.49,0.45,2.874,1.219,4.026C268.657,275.452,269.656,274.819,270.826,274.063z"/>
<path style="fill:#FFD782;" d="M270.826,274.063c3.365-2.18,7.553-4.887,15.409-4.887c0.263,0,0.511,0.011,0.765,0.017V256.25
	c0-4.014,3.255-7.268,7.27-7.268h-20.663c-4.015,0-7.27,3.255-7.27,7.268v15.656c0,1.49,0.45,2.874,1.219,4.026
	C268.657,275.452,269.656,274.819,270.826,274.063z"/>
<path style="fill:#EF9614;" d="M457.913,395.5c0.411-1.469,0.646-3.012,0.646-4.611v-27.83c-3.531,1.852-7.543,2.904-11.798,2.904
	H200.537c-4.256,0-8.268-1.053-11.799-2.904v27.83c0,1.6,0.236,3.143,0.646,4.611H457.913z"/>
<path style="fill:#EF8318;" d="M220.646,395.5c-0.411-1.469-0.646-3.012-0.646-4.611v-24.926h-19.463
	c-4.256,0-8.268-1.053-11.799-2.904v27.83c0,1.6,0.236,3.143,0.646,4.611H220.646z"/>
<path style="fill:#FE3745;" d="M456.411,274.662c-1.569,0-2.844,0.494-3.774,0.856c-0.028,0.01-0.055,0.022-0.083,0.031
	c-3.574-0.643-5.403-1.745-7.674-3.11c-3.317-1.994-7.446-4.475-15.622-4.475c-7.859,0-12.047,2.707-15.413,4.883
	c-2.631,1.703-4.367,2.827-8.431,2.827c-4.063,0-5.8-1.124-8.429-2.827c-3.366-2.176-7.554-4.883-15.411-4.883
	c-7.859,0-12.045,2.707-15.409,4.883c-2.63,1.703-4.368,2.827-8.43,2.827c-4.06,0-5.796-1.124-8.423-2.823
	c-3.365-2.18-7.551-4.887-15.407-4.887c-7.858,0-12.044,2.707-15.41,4.883c-2.628,1.703-4.366,2.827-8.427,2.827
	s-5.797-1.124-8.425-2.823c-3.365-2.18-7.55-4.887-15.408-4.887c-7.856,0-12.044,2.707-15.409,4.887
	c-2.628,1.699-4.364,2.823-8.425,2.823c-4.06,0-5.795-1.124-8.423-2.823c-3.364-2.18-7.551-4.887-15.408-4.887
	c-7.856,0-12.043,2.707-15.408,4.883c-2.629,1.703-4.366,2.827-8.427,2.827c-3.696,0-5.481-1.22-8.183-3.069
	c-3.137-2.145-7.041-4.816-13.446-4.816c-1.182,0-2.427,0.096-3.702,0.284c-3.152,0.464-5.49,3.169-5.49,6.356v27.514
	c0-3.837,3.108-6.943,6.944-6.943h265.581c3.835,0,6.943,3.106,6.943,6.943v-20.194
	C463.383,277.773,460.319,274.662,456.411,274.662z"/>
<path style="fill:#EA2A3D;" d="M190.859,293.439h13.673V274.43c0-0.984,0.245-1.91,0.645-2.751c-2.911-1.916-6.566-3.89-12.071-3.89
	c-1.182,0-2.427,0.096-3.702,0.284c-3.152,0.464-5.49,3.169-5.49,6.356v25.952C183.915,296.545,187.023,293.439,190.859,293.439z"/>
<g>
	<circle style="fill:#FFFFFF;" cx="323.65" cy="203.67" r="11.12"/>
	<circle style="fill:#FFFFFF;" cx="240.72" cy="200.25" r="11.11"/>
	<circle style="fill:#FFFFFF;" cx="406.58" cy="200.25" r="11.11"/>
</g>
<g>
	<circle style="fill:#FFDD8D;" cx="368.96" cy="178.02" r="11.11"/>
	<circle style="fill:#FFDD8D;" cx="285.18" cy="174.6" r="11.11"/>
</g>
<path style="fill:#994334;" d="M461.502,318.434c-1.046,1.702-2.921,2.844-5.063,2.844h-265.58c-2.142,0-4.016-1.142-5.063-2.844
	c-7.092,4.756-11.762,12.846-11.762,22.027c0,14.635,11.866,26.502,26.503,26.502h246.224c14.637,0,26.503-11.867,26.503-26.502
	C473.264,331.279,468.594,323.19,461.502,318.434z"/>
<path style="fill:#7F2D22;" d="M195,340.461c0-7.55,3.161-14.356,8.226-19.184h-12.367c-2.142,0-4.016-1.142-5.063-2.844
	c-7.092,4.756-11.762,12.846-11.762,22.027c0,14.635,11.866,26.502,26.503,26.502h20.966C206.866,366.963,195,355.096,195,340.461z"
	/>
<path style="fill:#FFAF10;" d="M339.75,321.277l40.278,23.254c3.601,2.08,9.494,2.08,13.095,0l40.277-23.254H339.75z"/>
<path style="fill:#FFD00D;" d="M220.548,321.277l41.123,23.742c3.658,2.112,9.645,2.112,13.303,0l41.124-23.742H220.548z"/>
<path style="fill:#37C47A;" d="M270,315.336v-14.954c0-3.837,3.109-6.943,6.944-6.943h-86.085c-3.835,0-6.944,3.106-6.944,6.943
	v14.954c0,3.834,3.108,6.941,6.944,6.941h86.085C273.109,322.277,270,319.17,270,315.336z"/>
<path style="fill:#02AF8E;" d="M204.509,315.336v-14.954c0-3.837,3.108-6.943,6.944-6.943h-20.594c-3.835,0-6.944,3.106-6.944,6.943
	v14.954c0,3.834,3.108,6.941,6.944,6.941h20.594C207.618,322.277,204.509,319.17,204.509,315.336z"/>
<path style="fill:#37C47A;" d="M456.439,293.439h-86.383c3.835,0,6.943,3.106,6.943,6.943v14.954c0,3.834-3.109,6.941-6.943,6.941
	h86.383c3.835,0,6.943-3.107,6.943-6.941v-14.954C463.383,296.545,460.274,293.439,456.439,293.439z"/>
<path style="fill:#0F9390;" d="M378.395,315.336c0,3.834-3.109,6.941-6.943,6.941h-95.604c-3.835,0-6.944-3.107-6.944-6.941v-14.954
	c0-3.837,3.109-6.943,6.944-6.943h95.604c3.834,0,6.943,3.106,6.943,6.943V315.336z"/>
<path style="fill:#10827C;" d="M289.509,315.336v-14.954c0-3.837,3.109-6.943,6.944-6.943h-20.605c-3.835,0-6.944,3.106-6.944,6.943
	v14.954c0,3.834,3.109,6.941,6.944,6.941h20.605C292.618,322.277,289.509,319.17,289.509,315.336z"/>
<path style="fill:#FE3745;" d="M482.5,420c0,2.75-2.25,5-5,5h-443c-2.75,0-5-2.25-5-5v-20c0-2.75,2.25-5,5-5h443c2.75,0,5,2.25,5,5
	V420z"/>
<path style="fill:#EA2A3D;" d="M50,420v-20c0-2.75,2.25-5,5-5H34.5c-2.75,0-5,2.25-5,5v20c0,2.75,2.25,5,5,5H55
	C52.25,425,50,422.75,50,420z"/>
<path style="fill:#FF9518;" d="M21.566,211.135c-1.531,0-2.858-1.063-3.199-2.556c-2.641-11.694-4.12-13.174-15.815-15.814
	C1.062,192.426,0,191.098,0,189.566c0-1.534,1.062-2.86,2.552-3.195c11.695-2.642,13.174-4.121,15.815-15.814
	c0.34-1.496,1.667-2.557,3.199-2.557c1.534,0,2.861,1.061,3.197,2.557c2.643,11.693,4.12,13.173,15.817,15.814
	c1.493,0.335,2.555,1.661,2.555,3.195c0,1.531-1.062,2.859-2.555,3.199c-11.697,2.64-13.174,4.119-15.817,15.814
	C24.427,210.072,23.1,211.135,21.566,211.135z"/>
<g>
	<path style="fill:#EF8318;" d="M448.431,136c-1.815,0-3.389-1.259-3.792-3.029c-3.13-13.863-4.884-15.617-18.749-18.747
		c-1.767-0.402-3.025-1.977-3.025-3.792c0-1.818,1.259-3.391,3.025-3.788c13.864-3.132,15.618-4.886,18.749-18.747
		c0.403-1.773,1.977-3.031,3.792-3.031c1.818,0,3.392,1.258,3.789,3.031c3.133,13.861,4.884,15.615,18.751,18.747
		c1.77,0.397,3.028,1.97,3.028,3.788c0,1.815-1.259,3.39-3.028,3.792c-13.867,3.13-15.618,4.884-18.751,18.747
		C451.823,134.741,450.249,136,448.431,136z"/>
	<path style="fill:#EF8318;" d="M108.431,143.135c-1.815,0-3.389-1.259-3.792-3.029c-3.13-13.863-4.884-15.617-18.749-18.747
		c-1.767-0.402-3.025-1.977-3.025-3.792c0-1.818,1.259-3.391,3.025-3.788c13.864-3.132,15.618-4.886,18.749-18.747
		c0.403-1.774,1.977-3.031,3.792-3.031c1.818,0,3.392,1.258,3.79,3.031c3.133,13.861,4.884,15.615,18.751,18.747
		c1.77,0.397,3.028,1.97,3.028,3.788c0,1.815-1.259,3.39-3.028,3.792c-13.867,3.13-15.618,4.884-18.751,18.747
		C111.823,141.876,110.249,143.135,108.431,143.135z"/>
</g>
<path style="fill:#FF9518;" d="M490.431,219.135c-1.531,0-2.858-1.063-3.199-2.556c-2.641-11.694-4.12-13.174-15.815-15.814
	c-1.49-0.34-2.552-1.668-2.552-3.199c0-1.534,1.062-2.86,2.552-3.195c11.695-2.642,13.174-4.121,15.815-15.814
	c0.34-1.496,1.667-2.557,3.199-2.557c1.534,0,2.861,1.061,3.197,2.557c2.643,11.693,4.12,13.173,15.817,15.814
	c1.493,0.335,2.555,1.661,2.555,3.195c0,1.531-1.062,2.859-2.555,3.199c-11.697,2.64-13.174,4.119-15.817,15.814
	C493.292,218.072,491.965,219.135,490.431,219.135z"/>
<g>
</g>
<g>
</g>
<g>
</g>
<g>
</g>
<g>
</g>
<g>
</g>
<g>
</g>
<g>
</g>
<g>
</g>
<g>
</g>
<g>
</g>
<g>
</g>
<g>
</g>
<g>
</g>
<g>
</g>
</svg>
