<?xml version="1.0" encoding="iso-8859-1"?>
<!-- Generator: Adobe Illustrator 19.0.0, SVG Export Plug-In . SVG Version: 6.00 Build 0)  -->
<svg version="1.1" id="Capa_1" xmlns="http://www.w3.org/2000/svg" xmlns:xlink="http://www.w3.org/1999/xlink" x="0px" y="0px"
	 viewBox="0 0 512 512" style="enable-background:new 0 0 512 512;" xml:space="preserve">
<circle style="fill:#FE91C2;" cx="256" cy="256" r="256"/>
<path style="fill:#FE52A2;" d="M511.804,265.554L400.832,154.581L78,245.57l20.859,20L146,308.148l-46.081,62.519L240.79,511.538
	C245.824,511.833,250.892,512,256,512C394.185,512,506.777,402.51,511.804,265.554z"/>
<polygon style="fill:#664B34;" points="413.141,224.711 413.141,276.859 394.784,301.682 128.271,301.682 98.859,276.859 
	98.859,224.711 "/>
<polygon style="fill:#59422D;" points="394.784,301.682 256,301.682 256,224.711 413.141,224.711 413.141,276.859 "/>
<path style="fill:#FD3018;" d="M98.859,276.859v52.148H413.14v-52.148H98.859z"/>
<rect x="256" y="276.86" style="fill:#E61E14;" width="157.14" height="52.15"/>
<path style="fill:#6ECD24;" d="M209.9,224.711l87.818,87.818l87.818-87.818H209.9z"/>
<polygon style="fill:#66BD21;" points="385.537,224.711 297.719,312.529 256,270.811 256,224.711 "/>
<path style="fill:#FCBF29;" d="M78,308.148v10.43c0,40.258,32.749,73.008,73.008,73.008h209.984
	c40.258,0,73.008-32.749,73.008-73.008v-10.43H78z"/>
<path style="fill:#FEA832;" d="M434,308.148v10.43c0,40.258-32.749,73.008-73.008,73.008H256v-83.438H434z"/>
<path style="fill:#FCBF29;" d="M319.273,120.414H192.727C129.522,120.414,78,171.936,78,235.141v10.43h356v-10.43
	C434,171.936,382.478,120.414,319.273,120.414z"/>
<path style="fill:#FEA832;" d="M434,235.141v10.43H256V120.414h63.273C382.478,120.414,434,171.936,434,235.141z"/>
<rect x="161.44" y="162.13" style="fill:#BF6015;" width="20.859" height="20.859"/>
<rect x="329.7" y="162.13" style="fill:#994C10;" width="20.859" height="20.859"/>
<rect x="245.57" y="162.13" style="fill:#BF6015;" width="20.859" height="20.859"/>
<rect x="287.29" y="182.99" style="fill:#994C10;" width="20.859" height="20.859"/>
<rect x="203.85" y="182.99" style="fill:#BF6015;" width="20.859" height="20.859"/>
<rect x="256" y="162.13" style="fill:#994C10;" width="10.43" height="20.859"/>
<g>
</g>
<g>
</g>
<g>
</g>
<g>
</g>
<g>
</g>
<g>
</g>
<g>
</g>
<g>
</g>
<g>
</g>
<g>
</g>
<g>
</g>
<g>
</g>
<g>
</g>
<g>
</g>
<g>
</g>
</svg>
